<?xml version="1.0" encoding="UTF-8"?>
<svg id="_1._Logo_Assets" data-name="1. Logo Assets" xmlns="http://www.w3.org/2000/svg" viewBox="0 0 854 182">
  <defs>
    <style>
      .cls-1 {
        fill: #181818;
        stroke-width: 0px;
      }
    </style>
  </defs>
  <path class="cls-1" d="m75,13.57C33.58,13.57,0,47.15,0,88.57s33.58,75,75,75,75-33.58,75-75c0-41.42-33.58-75-75-75Zm5.97,125h-11.82v-34.99c-7.6,7.79-15.19,15.57-22.74,23.32-2.15-2.17-4.15-4.19-6.16-6.21-.67-.67-1.37-1.29-2.02-1.97-.33-.34-.45-.64.06-1.1,1.08-.96,2.04-2.06,3.05-3.09,1.06-1.09,2.13-2.16,3.2-3.25,1.01-1.04,2.01-2.09,3.03-3.12,1.06-1.09,2.14-2.16,3.2-3.24,1.01-1.04,2.02-2.08,3.03-3.13,1.03-1.06,2.05-2.13,3.07-3.19,1.06-1.09,2.12-2.17,3.18-3.25.17-.17.36-.33.7-.63h-31.78v-12.28h31.7c-.55-.58-.97-1.05-1.4-1.49-3.24-3.31-6.49-6.61-9.73-9.92-3.8-3.88-7.59-7.77-11.4-11.64-.31-.32-.31-.5,0-.81,1.84-1.85,3.65-3.72,5.47-5.59.76-.78,1.51-1.57,2.29-2.31.11-.1.49-.08.6.04,1.86,1.87,3.71,3.75,5.54,5.65,1.79,1.85,3.55,3.73,5.34,5.56,1.78,1.82,3.6,3.6,5.39,5.42,1.61,1.64,3.18,3.32,4.78,4.97.47.48.96.93,1.56,1.5v-35.23h11.85v100Zm24.58-38c-6.63,0-12-5.37-12-12s5.37-12,12-12,12,5.37,12,12-5.37,12-12,12Z"/>
  <g>
    <polygon class="cls-1" points="238.6 43.93 273.11 43.93 273.11 31.45 238.6 31.45 238.6 13.51 274.96 13.51 274.96 1.13 238.6 1.13 234.69 1.13 223.84 1.13 223.84 73.62 238.6 73.62 238.6 43.93"/>
    <path class="cls-1" d="m365.53,10.78c-3.58-3.4-7.76-6.05-12.54-7.94-4.78-1.89-9.99-2.83-15.63-2.83s-10.74.95-15.52,2.83c-4.78,1.89-8.96,4.54-12.54,7.94-3.58,3.4-6.37,7.36-8.36,11.86-1.99,4.5-2.99,9.37-2.99,14.59s1.01,10.12,3.04,14.69c2.03,4.57,4.83,8.56,8.41,11.96,3.58,3.4,7.78,6.07,12.59,7.99,4.81,1.92,10,2.89,15.57,2.89s10.73-.96,15.47-2.89c4.74-1.92,8.9-4.59,12.48-7.99,3.58-3.4,6.38-7.37,8.41-11.91,2.03-4.54,3.04-9.42,3.04-14.64s-1.01-10.11-3.04-14.64c-2.03-4.54-4.83-8.51-8.41-11.91Zm-6.84,39.24c-2.06,3.64-4.9,6.5-8.52,8.56-3.62,2.06-7.89,3.09-12.81,3.09-3.55,0-6.82-.58-9.82-1.75-3-1.17-5.57-2.82-7.71-4.95-2.13-2.13-3.8-4.71-4.99-7.73s-1.79-6.36-1.79-10c0-4.81,1.03-9.04,3.09-12.68,2.06-3.64,4.92-6.48,8.57-8.51,3.65-2.03,7.87-3.04,12.64-3.04,3.69,0,7.02.58,9.99,1.75,2.97,1.17,5.54,2.84,7.71,5,2.17,2.17,3.83,4.73,4.99,7.68,1.16,2.96,1.74,6.22,1.74,9.79,0,4.88-1.03,9.14-3.09,12.79Z"/>
    <path class="cls-1" d="m447.75,40.68c3.76-1.75,6.67-4.19,8.74-7.32,2.06-3.13,3.09-6.82,3.09-11.09s-1.03-7.77-3.09-10.93c-2.06-3.16-4.96-5.65-8.68-7.48-3.73-1.82-8.05-2.73-12.97-2.73h-29.85v72.49h14.76v-30.32h2.56l24.35,30.32h17.91l-25.54-30.6c3.19-.37,6.11-1.14,8.72-2.35Zm-28-28.1h13.78c3.62,0,6.42.94,8.41,2.83,1.99,1.89,2.99,4.25,2.99,7.06,0,3.09-1,5.52-2.99,7.27-1.99,1.75-4.8,2.63-8.41,2.63h-13.78V12.58Z"/>
    <path class="cls-1" d="m561.82,35.47v-1.96h-38.86v12.17l23.04.22c-.45,2.14-1.14,4.09-2.09,5.82-1.81,3.26-4.41,5.74-7.82,7.42-3.4,1.69-7.49,2.53-12.26,2.53s-8.74-1.03-12.32-3.09c-3.58-2.06-6.4-4.93-8.46-8.61-2.06-3.68-3.09-7.92-3.09-12.74s1.05-9.02,3.15-12.63c2.1-3.61,5.01-6.43,8.74-8.46,3.73-2.03,8.01-3.04,12.86-3.04,4.27,0,8.18.79,11.72,2.37,3.54,1.58,6.51,3.85,8.9,6.81l9.98-9.49c-3.47-4.05-7.85-7.2-13.13-9.43-5.28-2.23-11.07-3.35-17.37-3.35-5.64,0-10.89.95-15.74,2.83-4.85,1.89-9.08,4.54-12.7,7.94-3.62,3.4-6.44,7.36-8.46,11.86-2.03,4.5-3.04,9.4-3.04,14.69s.99,10.09,2.99,14.59c1.99,4.5,4.78,8.47,8.36,11.91,3.58,3.44,7.74,6.1,12.48,7.99,4.74,1.89,9.82,2.83,15.25,2.83,7.38,0,13.91-1.46,19.59-4.38,5.68-2.92,10.15-7.29,13.4-13.1,3.26-5.81,4.89-13.04,4.89-21.7Z"/>
    <polygon class="cls-1" points="604.15 73.62 642.46 73.62 642.46 61.25 604.15 61.25 604.15 42.59 638.67 42.59 638.67 30.63 604.15 30.63 604.15 13.51 641.92 13.51 641.92 1.13 604.15 1.13 600.24 1.13 589.39 1.13 589.39 73.62 600.24 73.62 604.15 73.62"/>
    <polygon class="cls-1" points="262.2 150.96 234.26 108.48 223.84 108.48 223.84 180.97 238.6 180.97 238.6 137.8 257.16 166.12 267.14 166.12 285.81 137.64 285.81 180.97 300.46 180.97 300.46 108.48 290.04 108.48 262.2 150.96"/>
    <rect class="cls-1" x="332.37" y="108.48" width="14.76" height="72.49"/>
    <polygon class="cls-1" points="427.56 155.48 389.36 108.48 379.04 108.48 379.04 180.97 393.81 180.97 393.81 134.23 431.79 180.97 442.43 180.97 442.43 108.48 427.56 108.48 427.56 155.48"/>
    <polygon class="cls-1" points="488.99 149.93 523.51 149.93 523.51 137.97 488.99 137.97 488.99 120.85 526.76 120.85 526.76 108.48 488.99 108.48 485.08 108.48 474.23 108.48 474.23 180.97 485.08 180.97 488.99 180.97 527.31 180.97 527.31 168.6 488.99 168.6 488.99 149.93"/>
    <path class="cls-1" d="m598.61,148.02c3.76-1.75,6.67-4.19,8.74-7.32s3.09-6.82,3.09-11.09-1.03-7.77-3.09-10.93c-2.06-3.16-4.96-5.65-8.68-7.48-3.73-1.82-8.05-2.73-12.97-2.73h-29.85v72.49h14.76v-30.32h2.56l24.35,30.32h17.91l-25.54-30.6c3.19-.37,6.11-1.14,8.72-2.35Zm-28-28.1h13.78c3.62,0,6.42.94,8.41,2.83,1.99,1.89,2.99,4.25,2.99,7.06,0,3.09-1,5.52-2.99,7.27-1.99,1.75-4.8,2.63-8.41,2.63h-13.78v-19.8Z"/>
    <path class="cls-1" d="m662.76,108.48l-30.72,72.49h15.41l5.45-13.51h31.4l5.37,13.51h15.74l-30.61-72.49h-12.05Zm-5.12,47.23l11.07-27.46,10.92,27.46h-21.99Z"/>
    <polygon class="cls-1" points="745.46 108.48 730.7 108.48 730.7 180.97 741.56 180.97 745.46 180.97 780.41 180.97 780.41 168.49 745.46 168.49 745.46 108.48"/>
    <path class="cls-1" d="m852.05,150.81c-1.3-2.58-3.02-4.69-5.16-6.34-2.13-1.65-4.49-2.99-7.06-4.02-2.57-1.03-5.14-1.96-7.71-2.78s-4.92-1.69-7.06-2.58c-2.13-.89-3.85-1.96-5.16-3.2s-1.95-2.85-1.95-4.85c0-2.34.98-4.13,2.93-5.36,1.95-1.24,4.63-1.86,8.03-1.86,2.97,0,5.63.55,7.98,1.65,2.35,1.1,4.65,2.82,6.89,5.16l9.77-9.28c-2.68-2.95-6.11-5.36-10.31-7.22-4.2-1.86-8.9-2.78-14.11-2.78-4.92,0-9.33.83-13.24,2.48-3.91,1.65-6.98,4.02-9.23,7.11-2.24,3.09-3.36,6.84-3.36,11.24,0,3.71.65,6.79,1.95,9.23s3.02,4.43,5.16,5.98c2.13,1.55,4.49,2.83,7.06,3.87,2.57,1.03,5.14,1.94,7.71,2.73,2.57.79,4.92,1.67,7.06,2.63,2.13.96,3.85,2.13,5.16,3.51,1.3,1.38,1.95,3.16,1.95,5.36,0,2.55-1.14,4.54-3.42,5.98-2.28,1.44-5.34,2.16-9.17,2.16-4.27,0-7.89-.77-10.85-2.32-2.97-1.55-5.57-3.73-7.82-6.55l-9.77,9.28c3.54,3.99,7.5,6.98,11.88,8.97,4.38,1.99,9.64,2.99,15.79,2.99,8.68,0,15.52-1.92,20.51-5.77,4.99-3.85,7.49-9.14,7.49-15.88,0-3.78-.65-6.96-1.95-9.54Z"/>
  </g>
</svg>