<svg xmlns="http://www.w3.org/2000/svg" viewBox="-1.8 77.7 539.1 176.6" width="539.1" height="176.6">
  <path d="M59.86 242.34L59.86 242.34Q45.02 242.34 33.84 235.31Q22.66 228.28 16.41 215.59Q10.16 202.89 10.16 186.09L10.16 186.09Q10.16 169.00 16.41 156.26Q22.66 143.52 33.84 136.48Q45.02 129.45 59.86 129.45L59.86 129.45Q67.77 129.45 74.80 131.50Q81.84 133.55 87.65 137.41Q93.46 141.27 97.66 146.88Q101.86 152.50 104.10 159.63L104.10 159.63L87.21 164.41Q86.04 160.21 83.59 156.70Q81.15 153.18 77.69 150.60Q74.22 148.01 69.73 146.59Q65.23 145.18 59.86 145.18L59.86 145.18Q48.93 145.18 41.89 150.89Q34.86 156.60 31.45 165.88Q28.03 175.16 28.03 186.09L28.03 186.09Q28.03 196.84 31.45 206.06Q34.86 215.29 41.89 220.96Q48.93 226.62 59.86 226.62L59.86 226.62Q65.33 226.62 69.92 225.16Q74.51 223.69 78.08 221.01Q81.64 218.32 84.08 214.61Q86.52 210.90 87.70 206.50L87.70 206.50L104.49 211.29Q102.34 218.61 98.10 224.33Q93.85 230.04 87.99 234.09Q82.13 238.14 75 240.24Q67.87 242.34 59.86 242.34Z" fill="#F6F1E6"></path>
  <path d="M120.69 94.49L138.27 94.49L138.27 240L120.69 240L120.69 94.49Z" fill="#F6F1E6"></path>
  <path d="M177.70 240L160.13 240L160.13 130.82L177.70 130.82L177.70 240ZM169.01 112.95L169.01 112.95Q164.03 112.95 160.42 109.53Q156.80 106.11 156.80 101.33L156.80 101.33Q156.80 96.45 160.42 93.08Q164.03 89.71 169.01 89.71L169.01 89.71Q174.09 89.71 177.70 93.08Q181.32 96.45 181.32 101.33L181.32 101.33Q181.32 106.11 177.70 109.53Q174.09 112.95 169.01 112.95Z" fill="#F6F1E6"></path>
  <path d="M217.14 240L199.56 240L199.56 130.82L216.65 130.82L216.75 155.23L215.38 155.23Q217.63 146.35 222.46 140.54Q227.30 134.73 233.79 131.80Q240.29 128.87 247.32 128.87L247.32 128.87Q259.23 128.87 266.60 136.19Q273.98 143.52 276.13 155.43L276.13 155.43L273.78 155.43Q275.73 147.23 280.91 141.27Q286.09 135.31 293.46 132.09Q300.83 128.87 309.52 128.87L309.52 128.87Q319.00 128.87 326.81 132.97Q334.62 137.07 339.26 145.37Q343.90 153.67 343.90 166.37L343.90 166.37L343.90 240L326.32 240L326.32 166.86Q326.32 155.04 319.68 149.96Q313.04 144.88 304.25 144.88L304.25 144.88Q296.93 144.88 291.60 147.96Q286.28 151.04 283.40 156.41Q280.52 161.78 280.52 168.71L280.52 168.71L280.52 240L262.94 240L262.94 165.10Q262.94 156.02 256.89 150.45Q250.83 144.88 241.55 144.88L241.55 144.88Q235.21 144.88 229.59 147.86Q223.98 150.84 220.56 156.70Q217.14 162.56 217.14 171.25L217.14 171.25L217.14 240Z" fill="#F6F1E6"></path>
  <path d="M416.44 242.34L416.44 242.34Q406.09 242.34 399.74 238.78Q393.39 235.21 389.98 230.67Q386.56 226.13 384.70 223.11L384.70 223.11L382.75 223.11L382.75 240L365.76 240L365.76 94.49L383.34 94.49L383.34 148.30L384.70 148.30Q386.56 145.37 389.88 140.93Q393.20 136.48 399.45 132.97Q405.70 129.45 416.34 129.45L416.34 129.45Q430.02 129.45 440.42 136.29Q450.82 143.13 456.72 155.77Q462.63 168.42 462.63 185.70L462.63 185.70Q462.63 203.09 456.77 215.78Q450.91 228.48 440.51 235.41Q430.11 242.34 416.44 242.34ZM413.80 226.62L413.80 226.62Q424.06 226.62 430.94 221.10Q437.83 215.59 441.29 206.26Q444.76 196.93 444.76 185.51L444.76 185.51Q444.76 174.18 441.34 165.05Q437.93 155.92 431.04 150.55Q424.16 145.18 413.80 145.18L413.80 145.18Q403.75 145.18 396.91 150.25Q390.07 155.33 386.61 164.37Q383.14 173.40 383.14 185.51L383.14 185.51Q383.14 197.62 386.66 206.89Q390.17 216.17 397.06 221.40Q403.94 226.62 413.80 226.62Z" fill="#F6F1E6"></path>
  <path d="M497.79 180.57L497.79 180.57Q489.68 180.57 483.47 177.70Q477.27 174.83 473.81 169.78Q470.34 164.73 470.34 158.23L470.34 158.23Q470.34 153.18 472.38 148.86Q474.42 144.53 477.97 141.63Q481.51 138.73 485.97 137.93L485.97 137.93L485.97 137.50Q480.12 135.99 476.68 131.00Q473.24 126.00 473.24 119.67L473.24 119.67Q473.24 113.54 476.41 108.74Q479.58 103.93 485.11 101.16Q490.64 98.40 497.79 98.40L497.79 98.40Q504.82 98.40 510.36 101.16Q515.89 103.93 519.08 108.74Q522.28 113.54 522.28 119.67L522.28 119.67Q522.28 126.00 518.82 131.00Q515.35 135.99 509.66 137.50L509.66 137.50L509.66 137.93Q514.01 138.73 517.55 141.63Q521.10 144.53 523.19 148.86Q525.29 153.18 525.29 158.23L525.29 158.23Q525.29 164.73 521.77 169.78Q518.25 174.83 512.05 177.70Q505.84 180.57 497.79 180.57ZM497.79 171.71L497.79 171.71Q503.11 171.71 506.97 169.97Q510.84 168.22 512.96 165.08Q515.08 161.94 515.08 157.69L515.08 157.69Q515.08 153.24 512.83 149.82Q510.57 146.41 506.65 144.45Q502.73 142.49 497.79 142.49L497.79 142.49Q492.74 142.49 488.82 144.45Q484.90 146.41 482.64 149.82Q480.39 153.24 480.39 157.69L480.39 157.69Q480.39 161.94 482.48 165.08Q484.58 168.22 488.50 169.97Q492.42 171.71 497.79 171.71ZM497.79 133.95L497.79 133.95Q502.03 133.95 505.31 132.26Q508.58 130.57 510.49 127.51Q512.40 124.45 512.40 120.42L512.40 120.42Q512.40 116.39 510.57 113.44Q508.75 110.48 505.44 108.84Q502.14 107.21 497.79 107.21L497.79 107.21Q493.38 107.21 490.08 108.84Q486.78 110.48 484.95 113.44Q483.13 116.39 483.13 120.42L483.13 120.42Q483.13 124.45 484.98 127.51Q486.83 130.57 490.16 132.26Q493.49 133.95 497.79 133.95Z" fill="#8FB0AA"></path>
</svg>